<mxfile host="app.diagrams.net" modified="2023-11-29T08:29:55.424Z" agent="Mozilla/5.0 (Windows NT 6.1; Win64; x64) AppleWebKit/537.36 (KHTML, like Gecko) Chrome/109.0.0.0 Safari/537.36" etag="yHc-wwefqpgVJGdhi5pC" version="22.1.4" type="device">
  <diagram name="Страница — 1" id="1QjEsCd_BH6vGgKxIVAC">
    <mxGraphModel dx="1430" dy="794" grid="1" gridSize="10" guides="1" tooltips="1" connect="1" arrows="1" fold="1" page="1" pageScale="1" pageWidth="827" pageHeight="1169" math="0" shadow="0">
      <root>
        <mxCell id="0" />
        <mxCell id="1" parent="0" />
        <mxCell id="retJ_ChmnGQGY7qvhDxe-5" style="edgeStyle=orthogonalEdgeStyle;rounded=0;orthogonalLoop=1;jettySize=auto;html=1;exitX=0.5;exitY=1;exitDx=0;exitDy=0;entryX=0.5;entryY=0;entryDx=0;entryDy=0;" edge="1" parent="1" source="retJ_ChmnGQGY7qvhDxe-1" target="retJ_ChmnGQGY7qvhDxe-3">
          <mxGeometry relative="1" as="geometry" />
        </mxCell>
        <mxCell id="retJ_ChmnGQGY7qvhDxe-1" value="" style="ellipse;whiteSpace=wrap;html=1;aspect=fixed;fillColor=#000000;" vertex="1" parent="1">
          <mxGeometry x="390" y="190" width="20" height="20" as="geometry" />
        </mxCell>
        <mxCell id="retJ_ChmnGQGY7qvhDxe-2" value="" style="ellipse;shape=doubleEllipse;whiteSpace=wrap;html=1;aspect=fixed;fillColor=#000000;strokeColor=#ffffff;direction=south;" vertex="1" parent="1">
          <mxGeometry x="387.5" y="490" width="25" height="25" as="geometry" />
        </mxCell>
        <mxCell id="retJ_ChmnGQGY7qvhDxe-11" style="edgeStyle=orthogonalEdgeStyle;rounded=0;orthogonalLoop=1;jettySize=auto;html=1;exitX=0.5;exitY=1;exitDx=0;exitDy=0;entryX=0.5;entryY=0;entryDx=0;entryDy=0;" edge="1" parent="1" source="retJ_ChmnGQGY7qvhDxe-3" target="retJ_ChmnGQGY7qvhDxe-9">
          <mxGeometry relative="1" as="geometry" />
        </mxCell>
        <mxCell id="retJ_ChmnGQGY7qvhDxe-3" value="&lt;font style=&quot;font-size: 16px;&quot; face=&quot;Times New Roman&quot;&gt;Ввод n&lt;/font&gt;" style="rounded=1;whiteSpace=wrap;html=1;" vertex="1" parent="1">
          <mxGeometry x="360" y="230" width="80" height="30" as="geometry" />
        </mxCell>
        <mxCell id="retJ_ChmnGQGY7qvhDxe-8" style="edgeStyle=orthogonalEdgeStyle;rounded=0;orthogonalLoop=1;jettySize=auto;html=1;exitX=0.5;exitY=1;exitDx=0;exitDy=0;" edge="1" parent="1" source="retJ_ChmnGQGY7qvhDxe-4" target="retJ_ChmnGQGY7qvhDxe-7">
          <mxGeometry relative="1" as="geometry" />
        </mxCell>
        <mxCell id="retJ_ChmnGQGY7qvhDxe-4" value="&lt;font face=&quot;Times New Roman&quot;&gt;&lt;span style=&quot;font-size: 16px;&quot;&gt;r := n % 7&lt;/span&gt;&lt;/font&gt;" style="rounded=1;whiteSpace=wrap;html=1;" vertex="1" parent="1">
          <mxGeometry x="360" y="326" width="80" height="30" as="geometry" />
        </mxCell>
        <mxCell id="retJ_ChmnGQGY7qvhDxe-19" style="edgeStyle=orthogonalEdgeStyle;rounded=0;orthogonalLoop=1;jettySize=auto;html=1;exitX=0;exitY=0.5;exitDx=0;exitDy=0;entryX=0.5;entryY=0;entryDx=0;entryDy=0;" edge="1" parent="1" source="retJ_ChmnGQGY7qvhDxe-7" target="retJ_ChmnGQGY7qvhDxe-15">
          <mxGeometry relative="1" as="geometry" />
        </mxCell>
        <mxCell id="retJ_ChmnGQGY7qvhDxe-20" style="edgeStyle=orthogonalEdgeStyle;rounded=0;orthogonalLoop=1;jettySize=auto;html=1;exitX=1;exitY=0.5;exitDx=0;exitDy=0;entryX=0.5;entryY=0;entryDx=0;entryDy=0;" edge="1" parent="1" source="retJ_ChmnGQGY7qvhDxe-7" target="retJ_ChmnGQGY7qvhDxe-14">
          <mxGeometry relative="1" as="geometry" />
        </mxCell>
        <mxCell id="retJ_ChmnGQGY7qvhDxe-7" value="" style="rhombus;whiteSpace=wrap;html=1;" vertex="1" parent="1">
          <mxGeometry x="390" y="380" width="20" height="20" as="geometry" />
        </mxCell>
        <mxCell id="retJ_ChmnGQGY7qvhDxe-12" style="edgeStyle=orthogonalEdgeStyle;rounded=0;orthogonalLoop=1;jettySize=auto;html=1;exitX=0.5;exitY=1;exitDx=0;exitDy=0;entryX=0.5;entryY=0;entryDx=0;entryDy=0;" edge="1" parent="1" source="retJ_ChmnGQGY7qvhDxe-9" target="retJ_ChmnGQGY7qvhDxe-4">
          <mxGeometry relative="1" as="geometry" />
        </mxCell>
        <mxCell id="retJ_ChmnGQGY7qvhDxe-9" value="&lt;font face=&quot;Times New Roman&quot;&gt;&lt;span style=&quot;font-size: 16px;&quot;&gt;k := n // 7&lt;/span&gt;&lt;/font&gt;" style="rounded=1;whiteSpace=wrap;html=1;" vertex="1" parent="1">
          <mxGeometry x="360" y="277" width="80" height="30" as="geometry" />
        </mxCell>
        <mxCell id="retJ_ChmnGQGY7qvhDxe-22" style="edgeStyle=orthogonalEdgeStyle;rounded=0;orthogonalLoop=1;jettySize=auto;html=1;exitX=0.5;exitY=1;exitDx=0;exitDy=0;entryX=0.5;entryY=0;entryDx=0;entryDy=0;" edge="1" parent="1" source="retJ_ChmnGQGY7qvhDxe-14" target="retJ_ChmnGQGY7qvhDxe-2">
          <mxGeometry relative="1" as="geometry" />
        </mxCell>
        <mxCell id="retJ_ChmnGQGY7qvhDxe-14" value="&lt;font style=&quot;font-size: 14px;&quot; face=&quot;Times New Roman&quot;&gt;&lt;font style=&quot;font-size: 14px;&quot;&gt;Вывод &quot;&lt;/font&gt;f = 7 * k + r&lt;font style=&quot;font-size: 14px;&quot;&gt;&quot;&lt;/font&gt;&lt;/font&gt;" style="rounded=1;whiteSpace=wrap;html=1;" vertex="1" parent="1">
          <mxGeometry x="440" y="420" width="130" height="40" as="geometry" />
        </mxCell>
        <mxCell id="retJ_ChmnGQGY7qvhDxe-21" style="edgeStyle=orthogonalEdgeStyle;rounded=0;orthogonalLoop=1;jettySize=auto;html=1;exitX=0.5;exitY=1;exitDx=0;exitDy=0;entryX=0.5;entryY=1;entryDx=0;entryDy=0;" edge="1" parent="1" source="retJ_ChmnGQGY7qvhDxe-15" target="retJ_ChmnGQGY7qvhDxe-2">
          <mxGeometry relative="1" as="geometry" />
        </mxCell>
        <mxCell id="retJ_ChmnGQGY7qvhDxe-15" value="&lt;font style=&quot;font-size: 14px;&quot; face=&quot;Times New Roman&quot;&gt;&lt;font style=&quot;font-size: 14px;&quot;&gt;Вывод &quot;&lt;/font&gt;f = 7 * k&lt;font style=&quot;font-size: 14px;&quot;&gt;&quot;&lt;/font&gt;&lt;/font&gt;" style="rounded=1;whiteSpace=wrap;html=1;" vertex="1" parent="1">
          <mxGeometry x="230" y="420" width="130" height="40" as="geometry" />
        </mxCell>
        <mxCell id="retJ_ChmnGQGY7qvhDxe-17" value="&lt;font style=&quot;font-size: 14px;&quot; face=&quot;Times New Roman&quot;&gt;[else]&lt;/font&gt;" style="text;html=1;strokeColor=none;fillColor=none;align=center;verticalAlign=middle;whiteSpace=wrap;rounded=0;" vertex="1" parent="1">
          <mxGeometry x="420" y="363" width="60" height="30" as="geometry" />
        </mxCell>
        <mxCell id="retJ_ChmnGQGY7qvhDxe-18" value="&lt;font style=&quot;font-size: 14px;&quot; face=&quot;Times New Roman&quot;&gt;[k = 0]&lt;/font&gt;" style="text;html=1;strokeColor=none;fillColor=none;align=center;verticalAlign=middle;whiteSpace=wrap;rounded=0;" vertex="1" parent="1">
          <mxGeometry x="312" y="365" width="60" height="30" as="geometry" />
        </mxCell>
      </root>
    </mxGraphModel>
  </diagram>
</mxfile>
